<?xml version="1.0" encoding="UTF-8"?><svg id="Ebene_1" xmlns="http://www.w3.org/2000/svg" viewBox="0 0 59.37 62.38"><defs><style>.cls-1,.cls-2{fill:#fff;}.cls-1,.cls-3{stroke:#fff;stroke-miterlimit:10;}.cls-3{fill:none;stroke-width:2px;}</style></defs><path class="cls-1" d="M40.87,12.88V4.12c0-2-1.62-3.62-3.62-3.62h-14.8c-2,0-3.62,1.62-3.62,3.62v11.14c0,2-1.62,3.62-3.62,3.62H4.12c-2,0-3.62,1.62-3.62,3.62v16.76c0,2,1.62,3.62,3.62,3.62h11.09c2,0,3.62,1.62,3.62,3.62v11.76c0,2,1.62,3.62,3.62,3.62h14.8c2,0,3.62-1.62,3.62-3.62v-7.38h-7.4c-2,0-3.62-1.62-3.62-3.62v-30.76c0-2,1.62-3.62,3.62-3.62h7.4Z"/><rect class="cls-3" x="34.37" y="17.38" width="9" height="9" rx="1.82" ry="1.82"/><path class="cls-3" d="M50.37,17.38h6.03c1.09,0,1.97.88,1.97,1.97v7.03h-6c-1.11,0-2-.9-2-2v-7h0Z"/><rect class="cls-3" x="34.37" y="37.38" width="9" height="9" rx="1.87" ry="1.87"/><rect class="cls-2" x="37.37" y="28.38" width="3" height="3"/><rect class="cls-2" x="40.37" y="31.38" width="3" height="3"/><rect class="cls-2" x="34.37" y="31.38" width="3" height="3"/><rect class="cls-2" x="43.37" y="28.38" width="3" height="3"/><rect class="cls-2" x="50.37" y="28.38" width="3" height="3" transform="translate(21.99 81.74) rotate(-90)"/><rect class="cls-2" x="56.37" y="28.38" width="3" height="3" transform="translate(27.99 87.74) rotate(-90)"/><rect class="cls-2" x="53.37" y="31.38" width="3" height="3" transform="translate(21.99 87.74) rotate(-90)"/><rect class="cls-2" x="52.82" y="33.83" width="4.09" height="3" transform="translate(19.53 90.2) rotate(-90)"/><rect class="cls-2" x="49.37" y="38.38" width="3" height="3" transform="translate(10.99 90.74) rotate(-90)"/><rect class="cls-2" x="46.37" y="35.38" width="3" height="3" transform="translate(10.99 84.74) rotate(-90)"/><rect class="cls-2" x="46.37" y="41.38" width="3" height="3" transform="translate(4.99 90.74) rotate(-90)"/><rect class="cls-2" x="49.37" y="44.38" width="3" height="3" transform="translate(4.99 96.74) rotate(-90)"/><rect class="cls-2" x="56.37" y="39.38" width="3" height="3" transform="translate(16.99 98.74) rotate(-90)"/><path class="cls-2" d="M56.37,44.38h3v3h-1.14c-1.03,0-1.86-.83-1.86-1.86v-1.14h0Z" transform="translate(11.99 103.74) rotate(-90)"/><rect class="cls-2" x="37.37" y="40.38" width="3" height="3" rx="1.13" ry="1.13"/><rect class="cls-2" x="37.37" y="20.38" width="3" height="3" rx="1.04" ry="1.04"/></svg>