<?xml version="1.0" encoding="UTF-8"?><svg id="Ebene_1" xmlns="http://www.w3.org/2000/svg" xmlns:xlink="http://www.w3.org/1999/xlink" viewBox="0 0 59.37 62.38"><defs><style>.cls-1{fill:url(#Unbenannter_Verlauf_620-15);}.cls-2{stroke:url(#Unbenannter_Verlauf_620-2);}.cls-2,.cls-3,.cls-4{fill:none;stroke-width:2px;}.cls-2,.cls-3,.cls-4,.cls-5{stroke-miterlimit:10;}.cls-6{fill:url(#Unbenannter_Verlauf_620-17);}.cls-7{fill:url(#Unbenannter_Verlauf_620-7);}.cls-8{fill:url(#Unbenannter_Verlauf_620-13);}.cls-9{fill:url(#Unbenannter_Verlauf_620-9);}.cls-3{stroke:url(#Unbenannter_Verlauf_620-3);}.cls-10{fill:url(#Unbenannter_Verlauf_620-10);}.cls-4{stroke:url(#Unbenannter_Verlauf_620-4);}.cls-11{fill:url(#Unbenannter_Verlauf_620-5);}.cls-5{fill:url(#Unbenannter_Verlauf_552);stroke:url(#Unbenannter_Verlauf_620);}.cls-12{fill:#e13131;}.cls-13{fill:url(#Unbenannter_Verlauf_620-8);}.cls-14{fill:url(#Unbenannter_Verlauf_620-12);}.cls-15{fill:url(#Unbenannter_Verlauf_620-11);}.cls-16{fill:url(#Unbenannter_Verlauf_620-14);}.cls-17{fill:url(#Unbenannter_Verlauf_620-16);}.cls-18{fill:url(#Unbenannter_Verlauf_620-18);}.cls-19{fill:url(#Unbenannter_Verlauf_620-6);}</style><linearGradient id="Unbenannter_Verlauf_552" x1=".5" y1="31.19" x2="40.87" y2="31.19" gradientUnits="userSpaceOnUse"><stop offset="0" stop-color="#e84040"/><stop offset="0" stop-color="#e63e3e"/><stop offset="0" stop-color="#e13737"/><stop offset="0" stop-color="#d92b2c"/><stop offset="0" stop-color="#d42425"/><stop offset="1" stop-color="#e84343"/></linearGradient><linearGradient id="Unbenannter_Verlauf_620" x1="0" y1="31.19" x2="41.37" y2="31.19" gradientUnits="userSpaceOnUse"><stop offset="0" stop-color="#d42425"/><stop offset="1" stop-color="#e84343"/></linearGradient><linearGradient id="Unbenannter_Verlauf_620-2" x1="33.37" y1="21.88" x2="44.37" y2="21.88" xlink:href="#Unbenannter_Verlauf_620"/><linearGradient id="Unbenannter_Verlauf_620-3" x1="49.37" y1="21.88" x2="59.37" y2="21.88" xlink:href="#Unbenannter_Verlauf_620"/><linearGradient id="Unbenannter_Verlauf_620-4" x1="33.37" y1="41.88" x2="44.37" y2="41.88" xlink:href="#Unbenannter_Verlauf_620"/><linearGradient id="Unbenannter_Verlauf_620-5" x1="37.37" y1="29.88" x2="40.37" y2="29.88" xlink:href="#Unbenannter_Verlauf_620"/><linearGradient id="Unbenannter_Verlauf_620-6" x1="40.37" y1="32.88" x2="43.37" y2="32.88" xlink:href="#Unbenannter_Verlauf_620"/><linearGradient id="Unbenannter_Verlauf_620-7" x1="34.37" y1="32.88" x2="37.37" y2="32.88" xlink:href="#Unbenannter_Verlauf_620"/><linearGradient id="Unbenannter_Verlauf_620-8" x1="43.37" y1="29.88" x2="46.37" y2="29.88" xlink:href="#Unbenannter_Verlauf_620"/><linearGradient id="Unbenannter_Verlauf_620-9" x1="50.37" y1="29.88" x2="53.37" y2="29.88" gradientTransform="translate(81.74 -21.99) rotate(90)" xlink:href="#Unbenannter_Verlauf_620"/><linearGradient id="Unbenannter_Verlauf_620-10" x1="56.37" y1="29.88" x2="59.37" y2="29.88" gradientTransform="translate(87.74 -27.99) rotate(90)" xlink:href="#Unbenannter_Verlauf_620"/><linearGradient id="Unbenannter_Verlauf_620-11" x1="53.37" y1="32.88" x2="56.37" y2="32.88" gradientTransform="translate(87.74 -21.99) rotate(90)" xlink:href="#Unbenannter_Verlauf_620"/><linearGradient id="Unbenannter_Verlauf_620-12" x1="53.37" y1="35.33" x2="56.37" y2="35.33" gradientTransform="translate(90.2 -19.53) rotate(90)" xlink:href="#Unbenannter_Verlauf_620"/><linearGradient id="Unbenannter_Verlauf_620-13" x1="49.37" y1="39.88" x2="52.37" y2="39.88" gradientTransform="translate(90.74 -10.99) rotate(90)" xlink:href="#Unbenannter_Verlauf_620"/><linearGradient id="Unbenannter_Verlauf_620-14" x1="46.37" y1="36.88" x2="49.37" y2="36.88" gradientTransform="translate(84.74 -10.99) rotate(90)" xlink:href="#Unbenannter_Verlauf_620"/><linearGradient id="Unbenannter_Verlauf_620-15" x1="46.37" y1="42.88" x2="49.37" y2="42.88" gradientTransform="translate(90.74 -4.99) rotate(90)" xlink:href="#Unbenannter_Verlauf_620"/><linearGradient id="Unbenannter_Verlauf_620-16" x1="49.37" y1="45.88" x2="52.37" y2="45.88" gradientTransform="translate(96.74 -4.99) rotate(90)" xlink:href="#Unbenannter_Verlauf_620"/><linearGradient id="Unbenannter_Verlauf_620-17" x1="56.37" y1="40.88" x2="59.37" y2="40.88" gradientTransform="translate(98.74 -16.99) rotate(90)" xlink:href="#Unbenannter_Verlauf_620"/><linearGradient id="Unbenannter_Verlauf_620-18" x1="56.37" y1="45.88" x2="59.37" y2="45.88" gradientTransform="translate(103.74 -11.99) rotate(90)" xlink:href="#Unbenannter_Verlauf_620"/></defs><path class="cls-5" d="M40.87,12.88V4.12c0-2-1.62-3.62-3.62-3.62h-14.8c-2,0-3.62,1.62-3.62,3.62v11.14c0,2-1.62,3.62-3.62,3.62H4.12c-2,0-3.62,1.62-3.62,3.62v16.76c0,2,1.62,3.62,3.62,3.62h11.09c2,0,3.62,1.62,3.62,3.62v11.76c0,2,1.62,3.62,3.62,3.62h14.8c2,0,3.62-1.62,3.62-3.62v-7.38h-7.4c-2,0-3.62-1.62-3.62-3.62v-30.76c0-2,1.62-3.62,3.62-3.62h7.4Z"/><rect class="cls-2" x="34.37" y="17.38" width="9" height="9" rx="1.82" ry="1.82"/><path class="cls-3" d="M50.37,17.38h6.03c1.09,0,1.97.88,1.97,1.97v7.03h-6c-1.11,0-2-.9-2-2v-7h0Z"/><rect class="cls-4" x="34.37" y="37.38" width="9" height="9" rx="1.87" ry="1.87"/><rect class="cls-11" x="37.37" y="28.38" width="3" height="3"/><rect class="cls-19" x="40.37" y="31.38" width="3" height="3"/><rect class="cls-7" x="34.37" y="31.38" width="3" height="3"/><rect class="cls-13" x="43.37" y="28.38" width="3" height="3"/><rect class="cls-9" x="50.37" y="28.38" width="3" height="3" transform="translate(21.99 81.74) rotate(-90)"/><rect class="cls-10" x="56.37" y="28.38" width="3" height="3" transform="translate(27.99 87.74) rotate(-90)"/><rect class="cls-15" x="53.37" y="31.38" width="3" height="3" transform="translate(21.99 87.74) rotate(-90)"/><rect class="cls-14" x="52.82" y="33.83" width="4.09" height="3" transform="translate(19.53 90.2) rotate(-90)"/><rect class="cls-8" x="49.37" y="38.38" width="3" height="3" transform="translate(10.99 90.74) rotate(-90)"/><rect class="cls-16" x="46.37" y="35.38" width="3" height="3" transform="translate(10.99 84.74) rotate(-90)"/><rect class="cls-1" x="46.37" y="41.38" width="3" height="3" transform="translate(4.99 90.74) rotate(-90)"/><rect class="cls-17" x="49.37" y="44.38" width="3" height="3" transform="translate(4.99 96.74) rotate(-90)"/><rect class="cls-6" x="56.37" y="39.38" width="3" height="3" transform="translate(16.99 98.74) rotate(-90)"/><path class="cls-18" d="M56.37,44.38h3v3h-1.14c-1.03,0-1.86-.83-1.86-1.86v-1.14h0Z" transform="translate(11.99 103.74) rotate(-90)"/><rect class="cls-12" x="37.37" y="40.38" width="3" height="3" rx="1.13" ry="1.13"/><rect class="cls-12" x="37.37" y="20.38" width="3" height="3" rx="1.04" ry="1.04"/></svg>